<?xml version="1.0" standalone="no"?>
<!DOCTYPE svg PUBLIC "-//W3C//DTD SVG 20010904//EN"
 "http://www.w3.org/TR/2001/REC-SVG-20010904/DTD/svg10.dtd">
<svg version="1.0" xmlns="http://www.w3.org/2000/svg"
 width="260.000000pt" height="260.000000pt" viewBox="0 0 260.000000 260.000000"
 preserveAspectRatio="xMidYMid meet">
<metadata>
Created by potrace 1.11, written by Peter Selinger 2001-2013
</metadata>
<g transform="translate(0.000000,260.000000) scale(0.100000,-0.100000)"
fill="#000000" stroke="none">
<path d="M120 2560 c0 -27 -7 -47 -20 -60 -13 -13 -33 -20 -60 -20 l-40 0 0
-285 0 -285 35 0 c25 0 44 -8 62 -26 24 -25 25 -29 19 -105 -11 -125 10 -164
101 -183 40 -9 55 -27 51 -62 -3 -23 -11 -30 -58 -46 -95 -32 -95 -30 -98
-247 -4 -234 2 -265 61 -292 23 -10 50 -19 59 -19 36 0 48 -40 46 -146 -3
-123 7 -144 84 -169 29 -10 58 -22 63 -27 6 -5 12 -62 15 -127 6 -138 11 -148
94 -174 55 -18 62 -26 82 -97 10 -38 21 -47 82 -70 66 -25 72 -32 72 -82 l0
-38 450 0 450 0 0 39 c0 41 19 70 48 72 9 1 96 2 194 3 170 1 177 2 201 24 14
13 30 44 37 68 19 66 38 75 156 72 123 -4 142 6 167 85 21 65 33 77 87 84 l40
6 0 603 0 604 -27 0 c-45 0 -75 22 -90 65 -18 54 -46 81 -99 95 -25 7 -49 21
-54 31 -14 25 22 62 82 83 56 21 73 51 83 151 8 90 -10 140 -72 195 -83 73
-144 63 -178 -31 -25 -70 -37 -85 -91 -108 -33 -15 -48 -30 -68 -68 -13 -27
-31 -55 -40 -62 -12 -10 -121 -13 -503 -13 l-488 1 -17 21 c-15 19 -18 39 -16
120 4 117 -11 147 -83 167 -54 16 -66 28 -93 94 -19 49 -25 55 -76 74 -58 22
-80 48 -80 98 l0 27 -285 0 -285 0 0 -40z m408 -152 c38 -19 53 -34 77 -81 30
-58 48 -74 116 -101 31 -12 38 -21 48 -59 23 -94 6 -167 -40 -167 -14 0 -28
17 -50 63 -18 39 -41 69 -58 80 -34 20 -150 24 -169 5 -7 -7 -12 -41 -12 -84
0 -87 17 -114 92 -142 85 -32 91 -69 16 -101 -50 -21 -69 -41 -94 -96 -15 -30
-26 -41 -47 -43 -40 -5 -50 29 -35 122 15 100 -3 139 -86 181 -72 37 -91 61
-112 145 -22 86 -16 251 11 280 20 23 72 29 203 25 73 -3 103 -8 140 -27z
m807 -663 c82 -20 360 -20 435 0 118 31 348 27 414 -7 14 -7 40 -38 58 -68 24
-39 47 -62 85 -84 90 -51 96 -81 95 -456 0 -243 -3 -292 -18 -335 -12 -35 -16
-77 -15 -141 2 -117 0 -119 -130 -119 -90 0 -99 -2 -124 -25 -15 -14 -38 -47
-51 -73 -30 -59 -58 -71 -140 -62 -44 5 -85 1 -155 -15 -52 -12 -105 -24 -118
-26 -22 -5 -41 -22 -115 -106 -13 -14 -41 -31 -64 -37 -49 -14 -578 -22 -610
-10 -16 6 -32 29 -49 69 -26 59 -48 77 -126 104 -27 9 -37 50 -36 146 2 107
-9 130 -78 155 -75 28 -83 42 -83 151 0 51 -5 105 -12 119 -7 15 -33 36 -64
51 -89 43 -88 40 -87 237 0 187 5 212 51 223 58 14 84 35 107 88 27 61 36 70
93 87 27 8 53 25 70 46 69 87 63 84 159 82 50 -1 120 5 163 14 87 19 249 15
345 -8z"/>
<path d="M661 1286 c-64 -68 -43 -275 33 -315 17 -10 63 -15 137 -15 109 -1
111 -1 135 27 34 40 33 98 -2 126 -15 12 -43 25 -64 31 -45 12 -65 33 -85 90
-22 64 -41 80 -90 80 -31 0 -47 -6 -64 -24z"/>
<path d="M1647 970 c-38 -30 -51 -81 -44 -172 12 -147 43 -171 208 -166 122 3
145 15 155 79 8 47 -23 86 -82 100 -50 13 -78 42 -96 101 -21 72 -88 99 -141
58z"/>
</g>
</svg>
